<?xml version="1.0" standalone="no"?>
<!DOCTYPE svg PUBLIC "-//W3C//DTD SVG 20010904//EN"
 "http://www.w3.org/TR/2001/REC-SVG-20010904/DTD/svg10.dtd">
<svg version="1.0" xmlns="http://www.w3.org/2000/svg"
 width="288.000000pt" height="288.000000pt" viewBox="0 0 288.000000 288.000000"
 preserveAspectRatio="xMidYMid meet">
<metadata>
Created by potrace 1.14, written by Peter Selinger 2001-2017
</metadata>
<g transform="translate(0.000000,288.000000) scale(0.100000,-0.100000)"
fill="#000000" stroke="none">
<path d="M1397 2804 c-1 -1 -33 -4 -72 -7 -548 -47 -1014 -421 -1183 -948 -17
-52 -33 -114 -37 -139 -3 -25 -8 -52 -10 -60 -24 -91 -21 -313 6 -460 93 -494
459 -903 937 -1049 149 -46 237 -59 397 -61 153 -2 285 20 445 72 461 150 838
599 906 1078 13 93 14 102 14 200 3 372 -134 705 -399 971 -257 257 -568 389
-949 402 -30 1 -54 1 -55 1z m218 -149 c194 -28 435 -128 557 -230 l26 -22
-41 -13 c-250 -73 -335 -395 -153 -575 63 -63 126 -94 207 -103 43 -5 63 -11
65 -22 1 -8 9 -51 18 -95 8 -44 17 -98 20 -120 3 -22 7 -56 10 -75 3 -19 7
-57 10 -85 3 -27 8 -77 11 -110 4 -33 8 -121 9 -196 4 -224 -21 -367 -74 -420
-25 -25 -31 -27 -61 -19 -18 5 -50 21 -71 35 -47 31 -183 165 -258 255 -30 36
-57 67 -61 70 -4 4 -202 257 -328 419 -257 332 -498 596 -649 711 -112 85
-235 137 -342 145 -14 2 -27 3 -29 4 -3 0 40 45 95 99 191 189 401 297 662
341 109 18 277 21 377 6z m714 -405 c100 -46 147 -152 115 -258 -45 -154 -236
-198 -346 -80 -126 135 -31 356 152 357 19 0 55 -8 79 -19z m-1687 -218 c82
-38 161 -99 278 -214 167 -164 282 -300 610 -724 274 -355 451 -546 569 -615
l62 -37 -62 -37 c-222 -136 -432 -194 -677 -190 -122 2 -175 9 -283 36 -130
32 -259 89 -378 168 l-55 35 37 8 c157 33 267 179 263 350 -3 132 -73 241
-194 300 -56 28 -76 32 -141 32 -42 0 -85 -3 -97 -7 -19 -7 -24 2 -63 136
-102 351 -148 645 -116 746 18 58 140 64 247 13z m1956 -187 c90 -256 89 -576
-2 -819 -26 -70 -95 -214 -105 -220 -3 -2 -6 75 -6 172 -1 191 -6 273 -30 452
-15 113 -41 269 -51 302 -3 10 2 19 15 23 28 9 102 84 126 128 11 20 22 33 26
29 3 -4 15 -34 27 -67z m-2323 -170 c9 -43 17 -90 20 -104 11 -58 76 -303 108
-402 l33 -105 -34 -45 c-19 -24 -42 -61 -51 -82 l-16 -38 -33 85 c-66 169 -91
304 -87 481 2 98 31 302 41 292 3 -2 11 -39 19 -82z m504 -698 c123 -82 124
-266 3 -351 -34 -24 -56 -31 -105 -34 -79 -5 -138 24 -182 89 -27 39 -30 52
-30 120 0 67 3 80 29 117 68 98 188 123 285 59z"/>
</g>
</svg>
